<svg width="16" height="14" viewBox="0 0 16 14" fill="none" xmlns="http://www.w3.org/2000/svg">
<path d="M15.9006 1.54632C15.3043 1.82122 14.6749 1.99303 14.0124 2.09612C14.6749 1.68377 15.2049 1.03088 15.4368 0.240539C14.8074 0.618527 14.1117 0.893428 13.3498 1.06524C12.7536 0.412352 11.8923 0 10.9648 0C9.17595 0 7.7184 1.51196 7.7184 3.36754C7.7184 3.64244 7.75152 3.88298 7.81778 4.12352C5.13456 3.98606 2.71635 2.64592 1.09316 0.584165C0.828154 1.0996 0.662523 1.64941 0.662523 2.26793C0.662523 3.43626 1.22567 4.46714 2.12007 5.08567C1.59006 5.05131 1.09316 4.91386 0.629397 4.67332V4.70768C0.629397 6.35709 1.75569 7.73159 3.24636 8.04086C2.98136 8.10958 2.68322 8.14394 2.38508 8.14394C2.18633 8.14394 1.95444 8.10958 1.75569 8.07522C2.18633 9.41536 3.37887 10.4119 4.80329 10.4119C3.677 11.3053 2.28571 11.8551 0.761902 11.8551C0.496893 11.8551 0.231883 11.8551 0 11.8207C1.45755 12.7829 3.14699 13.3327 5.00205 13.3327C10.9979 13.3327 14.2774 8.17831 14.2774 3.71116C14.2774 3.57371 14.2774 3.4019 14.2774 3.26445C14.9068 2.81774 15.4699 2.23357 15.9006 1.54632Z" fill="#EAEAEA"/>
</svg>
