<svg width="20" height="20" viewBox="0 0 20 20" fill="none" xmlns="http://www.w3.org/2000/svg">
<path d="M9.63972 1.80182C12.2135 1.80182 12.5183 1.81182 13.5351 1.85991C14.1464 1.86767 14.7519 1.98412 15.3253 2.20418C15.7411 2.37053 16.1187 2.62535 16.4339 2.95224C16.749 3.27913 16.9947 3.67085 17.155 4.10219C17.3672 4.69697 17.4794 5.32509 17.4869 5.95924C17.5328 7.01395 17.5429 7.33013 17.5429 10C17.5429 12.6699 17.5333 12.986 17.4869 14.0408C17.4794 14.6749 17.3672 15.303 17.155 15.8978C16.9947 16.3291 16.749 16.7209 16.4339 17.0478C16.1187 17.3747 15.7411 17.6295 15.3253 17.7958C14.7519 18.0159 14.1464 18.1323 13.5351 18.1401C12.5188 18.1877 12.214 18.1982 9.63972 18.1982C7.06545 18.1982 6.76065 18.1882 5.74435 18.1401C5.13302 18.1323 4.52751 18.0159 3.95412 17.7958C3.53831 17.6295 3.16068 17.3747 2.84555 17.0478C2.53042 16.7209 2.28477 16.3291 2.12441 15.8978C1.91226 15.303 1.80001 14.6749 1.79253 14.0408C1.74662 12.986 1.73653 12.6699 1.73653 10C1.73653 7.33013 1.74617 7.01395 1.79253 5.95924C1.80001 5.32509 1.91226 4.69697 2.12441 4.10219C2.28477 3.67085 2.53042 3.27913 2.84555 2.95224C3.16068 2.62535 3.53831 2.37053 3.95412 2.20418C4.52751 1.98412 5.13302 1.86767 5.74435 1.85991C6.76111 1.81229 7.06591 1.80182 9.63972 1.80182V1.80182ZM9.63972 0C7.02322 0 6.69364 0.011428 5.6654 0.0599971C4.86532 0.0765049 4.07374 0.233646 3.32432 0.524737C2.68145 0.775994 2.09916 1.16974 1.6181 1.67849C1.1272 2.17769 0.747305 2.78206 0.504937 3.44936C0.224321 4.22675 0.072834 5.04788 0.0569203 5.87782C0.0110169 6.94348 0 7.28537 0 9.99952C0 12.7137 0.0110168 13.0556 0.0578383 14.1222C0.073752 14.9521 0.225239 15.7733 0.505856 16.5506C0.747954 17.2179 1.12754 17.8222 1.6181 18.3215C2.09943 18.8304 2.68204 19.2241 3.32524 19.4753C4.07466 19.7664 4.86624 19.9235 5.66632 19.94C6.69455 19.9876 7.02276 20 9.64063 20C12.2585 20 12.5867 19.9886 13.615 19.94C14.415 19.9235 15.2066 19.7664 15.956 19.4753C16.5962 19.2179 17.1775 18.8247 17.6628 18.3209C18.1481 17.8172 18.5268 17.2139 18.7745 16.5497C19.0551 15.7723 19.2066 14.9512 19.2225 14.1212C19.2684 13.0556 19.2794 12.7137 19.2794 9.99952C19.2794 7.28537 19.2684 6.94348 19.2216 5.87686C19.2057 5.04693 19.0542 4.2258 18.7736 3.44841C18.5315 2.78119 18.1519 2.17684 17.6613 1.67754C17.18 1.16867 16.5974 0.774919 15.9542 0.523785C15.2048 0.232694 14.4132 0.0755526 13.6131 0.0590448C12.5858 0.0114281 12.2562 0 9.63972 0Z" fill="#EAEAEA"/>
<path d="M9.63797 4.86475C8.65891 4.86475 7.70183 5.16591 6.88777 5.73015C6.07371 6.29439 5.43923 7.09637 5.06456 8.03466C4.68989 8.97296 4.59186 10.0054 4.78286 11.0015C4.97387 11.9976 5.44533 12.9126 6.13763 13.6307C6.82994 14.3489 7.71198 14.8379 8.67223 15.0361C9.63248 15.2342 10.6278 15.1325 11.5323 14.7439C12.4369 14.3552 13.21 13.697 13.7539 12.8526C14.2979 12.0081 14.5882 11.0153 14.5882 9.99974C14.5882 8.63786 14.0667 7.33175 13.1383 6.36875C12.21 5.40575 10.9509 4.86475 9.63797 4.86475ZM9.63797 13.3329C9.00245 13.3329 8.3812 13.1374 7.85279 12.7712C7.32438 12.4049 6.91253 11.8843 6.66932 11.2753C6.42612 10.6662 6.36249 9.99604 6.48647 9.34947C6.61046 8.7029 6.91649 8.10898 7.36587 7.64283C7.81525 7.17668 8.38779 6.85922 9.0111 6.73061C9.63441 6.602 10.2805 6.66801 10.8676 6.92029C11.4548 7.17257 11.9566 7.59979 12.3097 8.14793C12.6628 8.69606 12.8512 9.3405 12.8512 9.99974C12.8512 10.8838 12.5127 11.7316 11.9101 12.3567C11.3075 12.9817 10.4902 13.3329 9.63797 13.3329V13.3329Z" fill="#EAEAEA"/>
<path d="M14.7852 5.86204C15.424 5.86204 15.942 5.32481 15.942 4.6621C15.942 3.99939 15.424 3.46216 14.7852 3.46216C14.1463 3.46216 13.6284 3.99939 13.6284 4.6621C13.6284 5.32481 14.1463 5.86204 14.7852 5.86204Z" fill="#EAEAEA"/>
</svg>
