<svg width="19" height="19" viewBox="0 0 19 19" fill="none" xmlns="http://www.w3.org/2000/svg">
<path fill-rule="evenodd" clip-rule="evenodd" d="M9.22093 0C4.111 0 0 4.26444 0 9.56511C0 13.7897 2.65102 17.3766 6.30097 18.652C6.76201 18.7317 6.9157 18.4527 6.9157 18.1737C6.9157 17.9346 6.9157 17.3368 6.9157 16.5397C4.34152 17.1375 3.80363 15.2643 3.80363 15.2643C3.38101 14.1484 2.76628 13.8694 2.76628 13.8694C1.92103 13.2716 2.84312 13.2716 2.84312 13.2716C3.76521 13.3513 4.26468 14.268 4.26468 14.268C5.07151 15.7426 6.41623 15.3042 6.95412 15.065C7.03096 14.4274 7.26148 14.0288 7.53042 13.7897C5.49414 13.5506 3.34259 12.7136 3.34259 9.047C3.34259 8.01078 3.68837 7.13397 4.3031 6.4963C4.22626 6.25717 3.88047 5.30066 4.37994 3.94561C4.37994 3.94561 5.14835 3.70648 6.9157 4.94197C7.64569 4.7427 8.45252 4.62313 9.22093 4.62313C9.98934 4.62313 10.7962 4.7427 11.5262 4.94197C13.2935 3.70648 14.0619 3.94561 14.0619 3.94561C14.5614 5.26081 14.254 6.21732 14.1388 6.4963C14.7151 7.17383 15.0993 8.01078 15.0993 9.047C15.0993 12.7136 12.9477 13.5107 10.873 13.7498C11.2188 14.0288 11.4877 14.6266 11.4877 15.5034C11.4877 16.7788 11.4877 17.815 11.4877 18.1338C11.4877 18.373 11.6414 18.6918 12.1409 18.6121C15.7908 17.3766 18.4419 13.7897 18.4419 9.56511C18.4419 4.26444 14.3309 0 9.22093 0Z" fill="#EAEAEA"/>
</svg>
