<svg width="22" height="22" viewBox="0 0 22 22" fill="none" xmlns="http://www.w3.org/2000/svg">
<path d="M10.76 19.368C13.043 19.368 15.2325 18.4611 16.8468 16.8468C18.4611 15.2325 19.368 13.043 19.368 10.76C19.368 8.47702 18.4611 6.28754 16.8468 4.67322C15.2325 3.05891 13.043 2.152 10.76 2.152C8.47702 2.152 6.28754 3.05891 4.67322 4.67322C3.05891 6.28754 2.152 8.47702 2.152 10.76C2.152 13.043 3.05891 15.2325 4.67322 16.8468C6.28754 18.4611 8.47702 19.368 10.76 19.368ZM10.76 0C12.173 0 13.5722 0.278316 14.8777 0.819056C16.1831 1.3598 17.3693 2.15237 18.3685 3.15153C19.3676 4.15069 20.1602 5.33686 20.7009 6.64233C21.2417 7.94779 21.52 9.34698 21.52 10.76C21.52 13.6137 20.3864 16.3506 18.3685 18.3685C16.3506 20.3864 13.6137 21.52 10.76 21.52C4.80972 21.52 0 16.678 0 10.76C0 7.90627 1.13364 5.16942 3.15153 3.15153C5.16942 1.13364 7.90627 0 10.76 0ZM11.298 5.38V11.029L16.14 13.9019L15.333 15.2254L9.684 11.836V5.38H11.298Z" fill="white"/>
</svg>
