<svg width="165" height="70" viewBox="0 0 165 70" fill="none" xmlns="http://www.w3.org/2000/svg">
<g clip-path="url(#clip0_21_735)">
<mask id="mask0_21_735" style="mask-type:luminance" maskUnits="userSpaceOnUse" x="0" y="0" width="165" height="70">
<path d="M165 0H0V70H165V0Z" fill="white"/>
</mask>
<g mask="url(#mask0_21_735)">
<path d="M20.6943 12.1871C20.3849 12.0333 20.113 11.7222 20.4242 11.2985C20.6398 11.0041 20.9661 11.0641 20.9661 11.0641H29.2891C29.2891 11.0641 30.9148 11.1429 31.8428 11.7634C32.771 12.3802 33.2753 13.0794 33.5472 13.8911C33.8172 14.7029 33.7403 15.9795 33.7403 15.9795L32.8122 27.085L31.4566 42.0223C31.4566 42.0223 31.3104 43.5277 31.8803 44.5382C32.3847 45.4305 33.3147 45.931 33.9709 46.1635C34.6291 46.3941 36.3691 46.7428 36.3691 46.7428C36.3691 46.7428 36.8341 46.8984 36.8341 47.2095C36.8341 47.5208 36.7572 47.6745 36.4478 47.8657C36.1366 48.0588 35.8291 48.0588 35.8291 48.0588H27.1217C27.1217 48.0588 25.7117 48.1131 24.3729 46.8215C23.2104 45.7004 23.2104 43.9589 23.2104 43.9589L23.2498 42.2548L25.6104 17.1418C25.6104 17.1418 25.6254 15.6533 25.2636 14.8978C24.8379 14.0073 24.5285 13.6606 23.5217 13.1956C22.7211 12.8245 20.6961 12.1889 20.6961 12.1889" fill="white"/>
<path d="M54.7268 12.1366C54.4156 11.9829 54.1456 11.6736 54.4568 11.2462C54.6725 10.9518 54.9987 11.0137 54.9987 11.0137H63.3217C63.3217 11.0137 64.9455 11.0924 65.8736 11.7111C66.8053 12.3297 67.3082 13.0252 67.5779 13.8388C67.8477 14.6525 67.7731 15.9291 67.7731 15.9291L66.8427 27.0365L65.4893 41.972C65.4893 41.972 65.3429 43.4773 65.9129 44.4859C66.4171 45.3745 67.2571 45.8919 67.9152 46.1243C68.5738 46.3568 70.4019 46.6923 70.4019 46.6923C70.4019 46.6923 70.8387 46.878 70.8387 47.1873C70.8387 47.4966 70.7824 47.6709 70.4713 47.864C70.1597 48.059 69.8618 48.0083 69.8618 48.0083H61.1505C61.1505 48.0083 59.7424 48.0608 58.4036 46.7692C57.2412 45.6463 57.2412 43.9066 57.2412 43.9066L57.2805 42.2044L59.6411 17.0895C59.6411 17.0895 59.568 15.7678 59.2043 15.0124C58.7805 14.1219 58.2387 13.5408 57.5505 13.1415C56.7856 12.699 54.725 12.1366 54.725 12.1366" fill="white"/>
<path d="M71.9788 1.23728C71.709 1.00482 71.5944 0.809854 71.709 0.463042C71.8622 0 72.4849 0.039368 72.4849 0.039368L80.8829 0C80.8829 0 83.1686 0.039368 84.4042 1.12105C85.6417 2.2046 85.8368 3.0932 85.878 3.90681C85.9173 4.71854 85.1788 13.6588 85.1788 13.6588C85.1788 13.6588 85.1015 14.2006 85.2573 14.2006C85.4132 14.2006 86.5714 13.582 87.5785 13.1564C88.5835 12.7308 91.0998 11.996 93.3083 12.1516C95.5116 12.3053 98.4534 12.5772 101.782 14.9373C105.112 17.2975 106.235 19.9296 107.125 22.5991C108.014 25.2686 107.974 28.598 107.974 28.598C107.974 28.598 108.054 32.0418 107.046 35.6018C106.041 39.1599 104.376 41.2895 104.376 41.2895C104.376 41.2895 103.253 43.1473 100.816 45.1588C98.3768 47.1722 95.435 48.1395 95.435 48.1395C95.435 48.1395 92.4532 49.1444 89.2023 49.1069C85.9527 49.0675 83.4816 48.3889 81.1546 47.3278C78.5205 46.128 76.8594 43.7659 76.8594 43.7659C76.8594 43.7659 75.153 41.4826 74.9206 40.594C74.6901 39.7035 74.7667 39.3174 74.9619 39.1224C75.153 38.9293 75.4248 39.0474 75.5394 39.1599C75.6572 39.2761 76.8594 40.4384 77.4742 40.9015C78.0969 41.3682 79.0639 42.2175 80.8416 42.8755C82.6232 43.5335 84.2876 43.9947 86.1458 44.1521C88.0021 44.3058 90.7115 43.8841 92.609 42.8755C94.5065 41.8688 96.4793 39.9341 97.1766 38.89C97.8759 37.8438 99.0741 36.2579 99.888 32.6211C100.698 28.9842 100.428 26.9333 100.428 26.9333C100.428 26.9333 100.386 23.9901 98.8397 20.4695C97.0791 16.4614 93.267 15.6722 93.267 15.6722C93.267 15.6722 91.5758 15.2485 89.7837 15.5185C88.2365 15.7491 86.4163 16.9113 85.7183 17.8787C85.0229 18.846 84.9444 19.5808 84.7512 21.1294C84.6628 21.8361 83.5883 32.4673 83.5883 32.4673C83.5883 32.4673 83.4744 34.7506 83.6276 35.5624C83.7835 36.376 84.2464 37.6902 84.7905 38.1944C85.3339 38.6987 85.7995 38.7756 85.7582 39.0849C85.7183 39.3942 85.3359 39.8216 84.7532 39.936C84.1717 40.0522 82.9716 40.0897 81.423 39.7035C79.8758 39.3174 78.2488 38.5056 76.972 36.6854C75.6952 34.865 75.2676 33.3559 75.0745 31.4231C74.8833 29.4847 76.0808 17.6856 76.0808 17.6856L77.281 5.49652C77.281 5.49652 77.2398 4.02678 76.1188 2.94322C74.9972 1.85967 73.2143 1.55035 73.2143 1.55035C73.2143 1.55035 72.2466 1.47161 71.9748 1.24103" fill="white"/>
<path d="M134.144 14.0844C134.144 14.0844 135.962 13.7358 137.47 13.8126C138.981 13.8913 140.49 14.1987 141.302 14.5493C142.114 14.8962 142.811 15.1286 143.081 15.2449C143.353 15.3611 143.856 15.3611 143.934 14.9355C144.01 14.51 143.623 14.1613 143.005 13.6963C142.388 13.2333 139.754 11.5705 137.509 11.0268C135.265 10.4851 133.484 10.3688 131.2 10.4851C128.918 10.6013 124.628 11.7299 121.949 13.1939C118.491 15.0855 115.874 17.935 114.904 19.6541C113.86 21.5118 112.498 23.7127 112.157 28.2081C111.888 31.7682 112.311 35.2119 113.667 37.842C115.257 40.9371 117.769 43.9572 120.481 45.5038C123.188 47.0523 127.058 48.5595 131.161 48.4826C135.265 48.4058 139.444 46.7805 141.495 45.1176C143.547 43.4529 143.604 43.2111 143.702 42.7949C143.856 42.1388 143.471 41.9832 143.162 41.9832C142.853 41.9832 142.62 42.1781 141.688 42.6412C140.76 43.1061 138.902 43.6872 137.546 43.8803C136.194 44.0734 133.83 44.2684 130.967 43.2992C128.102 42.3319 125.664 40.086 125.664 40.086C125.664 40.086 123.379 37.842 122.412 35.2119C121.443 32.5799 121.521 28.943 121.521 28.943C121.521 28.943 121.598 24.4926 123.649 21.4762C125.7 18.458 127.131 17.2807 129.454 15.9029C131.738 14.5493 134.138 14.0844 134.138 14.0844" fill="white"/>
<path d="M37.7921 12.1403C37.479 11.9866 37.2109 11.6772 37.5184 11.2499C37.734 10.9555 38.0622 11.0192 38.0622 11.0192H46.3852C46.3852 11.0192 48.0089 11.0961 48.937 11.7166C49.867 12.3352 50.3714 13.0327 50.6414 13.8443C50.9132 14.6561 50.8345 15.9346 50.8345 15.9346L49.9063 27.0401L48.5508 41.9756C48.5508 41.9756 48.4064 43.481 48.9783 44.4914C49.4827 45.3819 50.4089 45.8861 51.067 46.1186C51.7251 46.3492 53.4688 46.6998 53.4688 46.6998C53.4688 46.6998 53.932 46.8516 53.932 47.1628C53.932 47.474 53.857 47.6277 53.5476 47.8208C53.2363 48.0139 52.9251 48.0139 52.9251 48.0139H44.2158C44.2158 48.0139 42.8059 48.0683 41.4671 46.7747C40.3065 45.6537 40.3065 43.9121 40.3065 43.9121L40.3458 42.2099L42.7065 17.0969C42.7065 17.0969 42.7177 15.6066 42.3596 14.8511C41.9321 13.9625 41.6246 13.6138 40.6159 13.1507C39.8134 12.7795 37.7921 12.1441 37.7921 12.1441" fill="white"/>
<path d="M54.6669 12.1403C54.3557 11.9866 54.0876 11.6772 54.3969 11.2499C54.6106 10.9555 54.9369 11.0192 54.9369 11.0192H63.2599C63.2599 11.0192 64.8874 11.0961 65.8134 11.7166C66.7438 12.3352 67.246 13.0327 67.5178 13.8443C67.7882 14.6561 67.7129 15.9346 67.7129 15.9346L66.7831 27.0401L65.4293 41.9756C65.4293 41.9756 65.2849 43.481 65.8547 44.4914C66.3575 45.3819 67.2873 45.8861 67.9453 46.1186C68.6001 46.3492 70.3437 46.6998 70.3437 46.6998C70.3437 46.6998 70.8066 46.8516 70.8066 47.1628C70.8066 47.474 70.73 47.6277 70.4203 47.8208C70.1113 48.0139 69.8016 48.0139 69.8016 48.0139H61.0906C61.0906 48.0139 59.6806 48.0683 58.3438 46.7747C57.1831 45.6537 57.1831 43.9121 57.1831 43.9121L57.2206 42.2099L59.5831 17.0969C59.5831 17.0969 59.5962 15.6066 59.2344 14.8511C58.8106 13.9625 58.4993 13.6138 57.4943 13.1507C56.6919 12.7795 54.6688 12.1441 54.6688 12.1441" fill="white"/>
<path d="M0 54.0596H165C165 54.0596 119.466 57.8052 81.0124 57.8052C42.5583 57.8052 0 54.0596 0 54.0596Z" fill="white"/>
<path d="M49.4319 67.0079V66.1514L53.1331 66.1455V68.8603C52.565 69.2387 51.98 69.524 51.3744 69.7148C50.7706 69.9063 50.15 70.0001 49.5162 70.0001C48.6575 70.0001 47.8775 69.8482 47.1725 69.5424C46.4732 69.2314 45.9445 68.789 45.5882 68.2058C45.2282 67.6227 45.05 66.9723 45.05 66.2584C45.05 65.5439 45.2263 64.8822 45.5826 64.2673C45.9407 63.6506 46.4525 63.1913 47.1182 62.8894C47.7894 62.5895 48.5563 62.4414 49.4263 62.4414C50.0619 62.4414 50.6282 62.5276 51.1382 62.7019C51.6519 62.8707 52.0531 63.1088 52.3419 63.4162C52.6325 63.7217 52.8519 64.1192 53.0037 64.6104L51.9613 64.8522C51.8262 64.4773 51.665 64.1867 51.47 63.9749C51.2769 63.7612 50.9975 63.5905 50.6356 63.4668C50.2737 63.3375 49.8744 63.2718 49.4337 63.2718C48.9031 63.2718 48.4456 63.3393 48.0613 63.4762C47.6769 63.6093 47.3638 63.7855 47.1275 64.0048C46.895 64.2242 46.7113 64.466 46.5819 64.7303C46.3588 65.184 46.2444 65.6733 46.2444 66.2003C46.2444 66.8527 46.3776 67.3962 46.6457 67.8347C46.9157 68.2752 47.3075 68.5994 47.8194 68.8134C48.3332 69.0254 48.8788 69.1323 49.4544 69.1323C49.955 69.1323 50.4425 69.0531 50.9206 68.892C51.3968 68.7289 51.7568 68.5545 52.0062 68.3749V67.0119H49.4356L49.4319 67.0079Z" fill="white"/>
<path d="M63.0949 65.7913H65.581C66.1101 65.7913 66.5245 65.7463 66.8205 65.6545C67.1171 65.5626 67.3476 65.4183 67.5014 65.2177C67.6586 65.0152 67.7358 64.7959 67.7358 64.5578C67.7358 64.2129 67.5839 63.9298 67.2821 63.7049C66.9835 63.4836 66.5095 63.373 65.8626 63.373H63.0949V65.7895V65.7913ZM61.9399 69.8765V62.5669H65.8134C66.5939 62.5669 67.1858 62.6325 67.5911 62.7657C67.9964 62.8931 68.3205 63.1256 68.5621 63.4574C68.8064 63.7911 68.9282 64.1566 68.9282 64.5597C68.9282 65.0827 68.7271 65.5177 68.3245 65.872C67.9231 66.228 67.3004 66.4551 66.4662 66.5509C66.7701 66.6724 67.0025 66.7946 67.1636 66.9141C67.5027 67.1749 67.8196 67.4972 68.1234 67.8888L69.6405 69.8779H68.1876L67.0307 68.3577C66.6908 67.9192 66.4158 67.5837 66.1958 67.3493C65.9765 67.1208 65.7801 66.9577 65.6072 66.8619C65.4368 66.7681 65.2606 66.7041 65.0806 66.6684C64.9512 66.644 64.7356 66.6348 64.4374 66.6348H63.0968V69.8798H61.9418L61.9399 69.8765Z" fill="white"/>
<path d="M78.6612 66.3295C78.6612 67.2105 78.9402 67.9039 79.5065 68.4137C80.0749 68.9202 80.7892 69.1711 81.6443 69.1711C82.4994 69.1711 83.2282 68.9182 83.7893 68.4025C84.3518 67.8907 84.6366 67.1616 84.6366 66.2245C84.6366 65.63 84.5148 65.1107 84.2712 64.6664C84.0329 64.2221 83.6819 63.8791 83.2171 63.6353C82.7561 63.3898 82.2388 63.2679 81.6627 63.266C80.8416 63.266 80.1351 63.5023 79.5445 63.9747C78.9572 64.4452 78.6632 65.227 78.6632 66.3295M77.4702 66.3143C77.4702 65.0994 77.8605 64.1509 78.6383 63.4685C79.4188 62.7786 80.4219 62.4355 81.6535 62.4355C82.4615 62.4355 83.1889 62.5967 83.8378 62.9174C84.4886 63.2398 84.9777 63.6916 85.3175 64.269C85.6587 64.8445 85.8309 65.4969 85.8309 66.2278C85.8309 66.9589 85.6528 67.6338 85.2927 68.2189C84.9345 68.804 84.4284 69.2464 83.7743 69.5502C83.1182 69.85 82.411 69.9999 81.6515 69.9999C80.8285 69.9999 80.0952 69.8348 79.4469 69.5046C78.7981 69.1691 78.3083 68.7174 77.977 68.1423C77.6391 67.5684 77.4741 66.9575 77.4741 66.3163" fill="white"/>
<path d="M100.133 62.5652H101.288V66.7906C101.288 67.5236 101.189 68.1087 100.992 68.538C100.792 68.9712 100.431 69.3251 99.9122 69.5972C99.3962 69.8653 98.7179 70 97.8719 70C97.0266 70 96.385 69.8838 95.8657 69.6461C95.3445 69.4097 94.9713 69.0683 94.75 68.6238C94.5274 68.1761 94.4148 67.5633 94.4148 66.7906V62.5652H95.5698V66.7814C95.5698 67.4166 95.6412 67.8855 95.7793 68.1893C95.9221 68.4871 96.1656 68.7196 96.5074 68.8847C96.8538 69.0458 97.2741 69.1283 97.7711 69.1283C98.6223 69.1283 99.2279 68.9652 99.5913 68.6449C99.9515 68.322 100.133 67.7019 100.133 66.7833V62.567V62.5652Z" fill="white"/>
<path d="M111.454 66.0391H113.712C114.46 66.0391 114.993 65.9264 115.307 65.694C115.62 65.4578 115.776 65.1315 115.776 64.7079C115.776 64.4042 115.685 64.1418 115.499 63.9262C115.313 63.7049 115.073 63.5625 114.771 63.4912C114.574 63.45 114.216 63.4257 113.693 63.4257H111.456V66.0371L111.454 66.0391ZM110.296 69.8746V62.5652H113.594C114.173 62.5652 114.615 62.5876 114.923 62.6327C115.353 62.6926 115.711 62.807 116.001 62.9776C116.292 63.1426 116.524 63.3769 116.699 63.6806C116.879 63.9824 116.967 64.3142 116.967 64.6798C116.967 65.3022 116.73 65.829 116.258 66.2603C115.785 66.6896 114.932 66.9029 113.695 66.9029H111.454V69.8766H110.296V69.8746Z" fill="white"/>
</g>
</g>
<defs>
<clipPath id="clip0_21_735">
<rect width="165" height="70" fill="white"/>
</clipPath>
</defs>
</svg>
