<svg width="19" height="18" viewBox="0 0 19 18" fill="none" xmlns="http://www.w3.org/2000/svg">
<path d="M8.77225 1.07909C8.80877 1.00531 8.86519 0.943199 8.93513 0.899776C9.00507 0.856353 9.08576 0.833344 9.16809 0.833344C9.25041 0.833344 9.3311 0.856353 9.40104 0.899776C9.47098 0.943199 9.5274 1.00531 9.56392 1.07909L11.4889 4.97825C11.6157 5.23489 11.8029 5.45693 12.0344 5.6253C12.2659 5.79367 12.5349 5.90335 12.8181 5.94492L17.1231 6.57492C17.2047 6.58674 17.2813 6.62115 17.3443 6.67425C17.4074 6.72736 17.4543 6.79705 17.4798 6.87543C17.5053 6.95381 17.5083 7.03776 17.4886 7.11778C17.4688 7.19781 17.4271 7.27071 17.3681 7.32825L14.2548 10.3599C14.0494 10.56 13.8958 10.807 13.8071 11.0796C13.7184 11.3522 13.6973 11.6423 13.7456 11.9249L14.4806 16.2083C14.495 16.2898 14.4862 16.3737 14.4552 16.4505C14.4242 16.5273 14.3722 16.5938 14.3052 16.6424C14.2382 16.6911 14.1589 16.7199 14.0763 16.7257C13.9937 16.7314 13.9112 16.7138 13.8381 16.6749L9.98975 14.6516C9.73618 14.5184 9.45407 14.4489 9.16767 14.4489C8.88127 14.4489 8.59915 14.5184 8.34558 14.6516L4.49809 16.6749C4.42503 16.7136 4.34258 16.731 4.26013 16.7251C4.17767 16.7193 4.09852 16.6904 4.03166 16.6418C3.96481 16.5931 3.91295 16.5267 3.88197 16.4501C3.85098 16.3735 3.84213 16.2897 3.85642 16.2083L4.59059 11.9258C4.63908 11.643 4.61807 11.3528 4.52937 11.08C4.44066 10.8072 4.28693 10.5601 4.08142 10.3599L0.968085 7.32909C0.90858 7.27162 0.866413 7.19858 0.846387 7.11832C0.826361 7.03805 0.829282 6.95377 0.854817 6.87508C0.880352 6.79639 0.927474 6.72646 0.990816 6.67324C1.05416 6.62003 1.13117 6.58567 1.21308 6.57409L5.51725 5.94492C5.8008 5.90367 6.07008 5.79414 6.30191 5.62574C6.53373 5.45735 6.72117 5.23515 6.84808 4.97825L8.77225 1.07909Z" fill="#D4AF37" stroke="#D4AF37" stroke-width="1.66667" stroke-linecap="round" stroke-linejoin="round"/>
</svg>
